mtllib field.mtl
o field
v 3.000000 -3.000000 0.000000
v 3.000000 3.000000 0.000000
v -3.000000 3.000000 0.000000
v -3.000000 -3.000000 0.000000

v 3.000000 -3.000000 -1.000000
v 3.000000 3.000000 -1.000000
v -3.000000 3.000000 -1.000000
v -3.000000 -3.000000 -1.000000

vt 0.000000 1.000000
vt 1.000000 1.000000
vt 1.000000 0.000000
vt 0.000000 0.000000
vn 0.000000 0.000000 1.000000
vn 1.000000 0.000000 0.000000
vn 0.000000 1.000000 0.000000
vn -1.000000 0.000000 0.000000
vn 0.000000 -1.000000 0.000000
usemtl grass
s off
f 1/1/1 2/2/1 3/3/1 4/4/1
usemtl mud
s off
f 5/1/2 6/2/2 2/3/2 1/4/2
f 6/1/3 7/2/3 3/3/3 2/4/3
f 7/1/4 8/2/4 4/3/4 3/4/4
f 8/1/5 5/2/5 1/3/5 4/4/5
